<?xml version="1.0" standalone="no"?>
<!DOCTYPE svg PUBLIC "-//W3C//DTD SVG 20010904//EN"
 "http://www.w3.org/TR/2001/REC-SVG-20010904/DTD/svg10.dtd">
<svg version="1.0" xmlns="http://www.w3.org/2000/svg"
 width="1000.000000pt" height="950.000000pt" viewBox="0 0 1000.000000 950.000000"
 preserveAspectRatio="xMidYMid meet">

<g transform="translate(0.000000,950.000000) scale(0.100000,-0.100000)"
fill="#000000" stroke="none">
<path d="M970 5804 c-51 -10 -146 -45 -175 -64 l-30 -20 280 0 280 0 -32 21
c-74 47 -238 79 -323 63z"/>
<path d="M690 5655 c-18 -19 -31 -37 -28 -40 3 -4 178 -3 387 1 l382 7 -32 34
-33 33 -321 0 -321 0 -34 -35z"/>
<path d="M616 5558 c-9 -12 -16 -26 -16 -30 0 -5 200 -8 445 -8 245 0 445 2
445 5 0 2 -5 16 -12 30 l-11 25 -418 0 -418 0 -15 -22z"/>
<path d="M575 5465 c-15 -48 -49 -45 469 -45 l484 0 -7 28 -7 27 -467 3 c-410
2 -468 0 -472 -13z"/>
<path d="M556 5374 c-18 -46 -37 -44 490 -44 l495 0 -3 28 -3 27 -486 3 c-437
2 -487 1 -493 -14z"/>
<path d="M552 5268 l3 -23 490 0 490 0 3 23 3 22 -496 0 -496 0 3 -22z"/>
<path d="M567 5180 c5 -20 14 -20 478 -20 464 0 473 0 478 20 5 20 0 20 -478
20 -478 0 -483 0 -478 -20z"/>
<path d="M602 5098 c4 -10 102 -14 440 -16 378 -2 437 0 448 13 11 13 -38 15
-440 15 -357 0 -451 -3 -448 -12z"/>
<path d="M660 5005 c19 -23 765 -23 774 0 5 13 -43 15 -391 15 -350 0 -394 -2
-383 -15z"/>
<path d="M23 4963 l-23 -4 0 -615 0 -614 491 0 490 0 -3 328 c-4 325 -4 327
-31 400 -94 258 -267 399 -582 472 -72 17 -280 43 -310 39 -5 -1 -20 -4 -32
-6z"/>
<path d="M1910 4960 c-161 -16 -317 -59 -445 -122 -148 -74 -258 -204 -322
-378 -27 -75 -27 -75 -31 -402 l-3 -328 490 0 491 0 0 614 0 614 -31 6 c-35 7
-40 6 -149 -4z"/>
<path d="M2550 4951 c0 -5 7 -11 14 -14 8 -3 22 -20 31 -37 18 -35 20 -12 -36
-470 -59 -488 -73 -545 -150 -647 l-40 -53 233 0 233 1 -55 19 c-75 25 -120
77 -120 137 0 23 16 166 35 315 19 150 40 315 47 366 6 50 14 92 17 92 3 0 77
-166 165 -369 87 -203 176 -398 197 -434 36 -60 98 -127 118 -127 5 0 14 15
20 33 33 94 356 897 361 897 7 0 52 -293 91 -580 25 -187 22 -234 -19 -300
l-31 -50 174 0 174 0 -24 36 c-40 59 -33 19 -140 859 -32 253 -32 251 5 285
17 15 30 31 30 34 0 3 -77 6 -170 6 -162 0 -170 -1 -161 -18 8 -15 -25 -103
-149 -406 -87 -213 -161 -390 -164 -393 -3 -4 -8 -4 -10 -2 -1 2 -78 184 -170
404 -92 220 -170 402 -174 406 -12 11 -332 21 -332 10z"/>
<path d="M4490 4937 c0 -8 11 -19 24 -25 54 -24 52 -30 -132 -482 -33 -80 -94
-230 -137 -335 -92 -226 -102 -246 -155 -313 l-40 -52 165 0 c162 0 165 0 146
19 -10 10 -22 33 -26 49 -6 31 -3 43 86 290 l34 92 213 -2 213 -3 65 -158 c35
-86 64 -170 64 -186 0 -15 -11 -45 -25 -65 l-24 -36 180 0 180 0 -34 35 c-18
19 -43 56 -55 82 -19 44 -222 554 -375 945 l-62 158 -152 0 c-121 0 -153 -3
-153 -13z m252 -389 c37 -90 70 -171 74 -180 6 -17 -5 -18 -144 -18 l-150 0
71 180 c40 99 74 180 77 180 3 0 36 -73 72 -162z"/>
<path d="M5060 4946 c0 -3 24 -21 53 -40 60 -41 47 -22 256 -364 l161 -262 0
-228 0 -228 -30 -47 -30 -47 172 0 c168 0 171 0 154 19 -37 41 -46 105 -46
322 l0 209 213 322 c117 178 216 329 220 336 7 9 -29 12 -167 12 -140 0 -176
-3 -176 -13 0 -8 11 -19 24 -27 34 -18 51 -61 36 -92 -36 -69 -226 -367 -234
-365 -4 2 -72 106 -150 231 -170 277 -157 266 -333 266 -68 0 -123 -2 -123 -4z"/>
<path d="M6716 4934 c-161 -35 -260 -88 -358 -192 -112 -119 -159 -237 -159
-402 -1 -239 135 -445 364 -554 96 -46 172 -65 287 -72 191 -12 372 58 510
196 42 41 88 98 103 127 35 66 67 191 67 262 0 200 -88 404 -218 507 -155 121
-391 171 -596 128z m283 -133 c169 -53 264 -174 292 -375 25 -177 -25 -340
-136 -445 -79 -75 -149 -105 -257 -109 -144 -6 -250 37 -343 140 -144 160
-157 433 -30 633 39 62 84 101 152 132 99 46 223 55 322 24z"/>
<path d="M7575 4940 c-4 -6 5 -20 19 -31 57 -45 56 -36 56 -574 0 -535 1 -524
-53 -582 l-20 -23 167 0 c156 0 166 1 151 17 -9 9 -21 27 -26 40 -13 36 -12
1000 2 1008 22 14 127 17 165 5 118 -38 177 -162 127 -267 -27 -58 -124 -119
-232 -145 -25 -6 -50 -14 -54 -18 -15 -13 308 -466 393 -550 82 -83 103 -90
262 -90 133 0 133 0 98 18 -63 31 -181 154 -335 352 -83 107 -154 200 -158
207 -5 7 14 24 50 44 70 40 152 120 178 174 31 63 28 185 -7 250 -35 66 -80
108 -153 142 l-60 28 -281 3 c-199 2 -284 0 -289 -8z"/>
<path d="M9130 4935 c0 -8 4 -15 9 -15 19 0 41 -32 41 -61 0 -29 -340 -881
-395 -989 -14 -28 -45 -72 -67 -96 l-41 -44 167 0 167 0 -20 26 c-12 15 -21
41 -21 60 0 18 28 107 61 198 l61 166 213 0 212 0 67 -167 c75 -183 77 -205
29 -255 l-27 -28 186 0 185 0 -36 38 c-30 32 -60 96 -165 363 -71 178 -173
434 -226 569 l-98 245 -151 3 c-130 2 -151 0 -151 -13z m259 -410 l69 -170
-145 -3 c-80 -1 -147 -1 -149 1 -2 2 28 83 68 181 39 97 75 173 79 169 5 -5
40 -85 78 -178z"/>
<path d="M750 4915 c11 -13 56 -15 295 -15 239 0 284 2 295 15 11 13 -23 15
-295 15 -272 0 -306 -2 -295 -15z"/>
<path d="M930 4830 c14 -4 66 -8 115 -8 50 0 101 4 115 8 15 5 -31 8 -115 8
-84 0 -130 -3 -115 -8z"/>
</g>
</svg>
